<svg xmlns="http://www.w3.org/2000/svg" viewBox="0 0 1024 1024"><defs><style>.a{fill:#6e8294;}.b{fill:#ecf7f4;}.c{fill:#808992;}.d{fill:#8f9294;}.e{fill:#6f8ca1;}.f{fill:#78c9d9;}.g{fill:#a09a99;}.h{fill:#719fb1;}.i{fill:#a8a2a2;}.j{fill:#a9aab3;}.k{fill:#a9b4c1;}.l{fill:#bacdd9;}.m{fill:#798b98;}.n{fill:#b2dee6;}.o{fill:#8ed4e1;}.p{fill:#a0cad8;}.q{fill:#b0dfe8;}.r{fill:#cdebeb;}.s{fill:#86969f;}.t{fill:#95999c;}.u{fill:#7ba2b7;}.v{fill:#7b93a2;}.w{fill:#72adc1;}.x{fill:#9ca1a6;}.y{fill:#8fa4b1;}.z{fill:#95b8ca;}.aa{fill:#b9d1d7;}.ab{fill:#869fac;}</style></defs><path class="a" d="M422.14,367c-.05-2.65-.05-5.3-.17-7.94-.3-7,3.4-11.57,8.92-15.09,1.33,1,3.1,1.79,3.9,3.14A89.45,89.45,0,0,1,439,356q-2.49,5-5,10Z"/><path class="b" d="M458.87,341.06c2.12.37,5.13,0,6.22,1.23,4.43,5.1,8.5,9.86,10.7,17.24,3.14,10.46-3.33,16.41-6.13,24.15-.28.77-2.49.84-3.8,1.23L469,376c.62-1.31,1.24-2.61,1.85-3.91l1.26-6.08v-2c0-.67,0-1.34,0-2l-2-5L465,349,461.08,346Q460,343.52,458.87,341.06Z"/><path class="c" d="M422.14,367,434,366l9,1v4l-16.15,6.07C421.68,375.39,422.11,371.09,422.14,367Z"/><path class="d" d="M426.85,377.07,443,371l4,3q-2.5,4.5-5,9l-10.09.05Z"/><path class="e" d="M439,356a89.45,89.45,0,0,0-4.21-8.9c-.8-1.35-2.57-2.12-3.9-3.14l6.11-4c2.41,1.29,5.76,1.63,5.36,5.73,0,.3,2.37.85,3.65,1.28.33,1,.67,2,1,3l1,1q0,.5,0,1l-3,4Z"/><path class="f" d="M458.87,341.06q1.11,2.46,2.21,4.9L459,350,457,350l-7-8-4-2.9C451,336.27,454.5,336.8,458.87,341.06Z"/><path class="g" d="M431.91,383,442,383l5,0c-.5,4.18-2.27,6.87-7.06,6Z"/><path class="h" d="M446,339.11l4,2.9c0,1.33,0,2.66,0,4h0l-1,1h-3c-1.28-.43-3.68-1-3.65-1.28.4-4.1-2.95-4.44-5.36-5.73Z"/><path class="i" d="M440,389c4.79.86,6.56-1.83,7.06-6h2l3,2-2,6.87Z"/><path class="j" d="M450,391.87l2-6.87,4-6c.32,3.62.65,7.23,1,10.85Z"/><path class="k" d="M457,389.84c-.32-3.62-.65-7.23-1-10.85.33-.66.66-1.32,1-2l3-1,3,1c.32,3.41-5.54,6.45-.61,10.14Z"/><path class="l" d="M462.41,387.16c-4.93-3.69.93-6.73.61-10.14l3,0,3-1-3.09,8.92Z"/><path class="m" d="M439,356h6c.33,2,.67,4,1,6l-3,5-9-1Q436.51,361,439,356Z"/><path class="n" d="M472.06,362c0,.67,0,1.34,0,2l-1.39.8,1.38,1.19-1.26,6.08a14,14,0,0,1-1.67-.66c.9-3.56-1.6-4.49-4.11-5.43-.36-2.3-.73-4.59-1.09-6.89L464,358Z"/><path class="o" d="M459,350l2.13-4.05L465,349c1.55,2.74.09,4.5-2,6.06l-3.94-2C459,352,459,351,459,350Z"/><path class="p" d="M465,366c2.5.94,5,1.87,4.1,5.43a14,14,0,0,0,1.67.66c-.61,1.3-1.23,2.6-1.85,3.91l-3,1C465.66,373.32,465.34,369.65,465,366Z"/><path class="q" d="M463,355.07c2.06-1.56,3.52-3.32,2-6.06l5.09,8-7-.92C463,355.74,463,355.41,463,355.07Z"/><path class="r" d="M463.06,356.08l7,.92,2,5L464,358Z"/><path class="r" d="M472.06,366l-1.38-1.19,1.39-.8C472.06,364.67,472.06,365.34,472.06,366Z"/><path class="s" d="M443,367l3-5h5l3,8c-.33,1-.67,2-1,3l-6,1-4-3Z"/><path class="t" d="M447,374l6-1c0,.67,0,1.33,0,2q-2,4-4,8h-2l-5,0Q444.49,378.49,447,374Z"/><path class="u" d="M459,350c0,1,.07,2,.1,3,0,1.64.05,3.28.08,4.92L452,356c-1.33-1.34-2.66-2.67-4-4q0-.5,0-1l-1-1c-.33-1-.67-2-1-3h3l1-1h0a48.7,48.7,0,0,0,4.09,3.09,12.34,12.34,0,0,0,2.91.9Z"/><path class="v" d="M448,352c1.32,1.34,2.65,2.67,4,4q-.51,3-1,6h-5c-.33-2-.67-4-1-6Z"/><path class="v" d="M447,350l1,1Z"/><path class="w" d="M457,350a12.34,12.34,0,0,1-2.91-.9A48.7,48.7,0,0,1,450,346c0-1.33,0-2.66,0-4Z"/><path class="w" d="M450,346l-1,1Z"/><path class="x" d="M449,383q2-4,4-8l4,2c-.34.66-.67,1.32-1,2l-4,6Z"/><path class="y" d="M457,377l-4-2c0-.67,0-1.33,0-2,.34-1,.68-2,1-3,5.94-1.26,6.7-4.52,1.68-10.33L460,359l.07-.05c.84,5.69,3.36,11.38-.1,17Z"/><path class="z" d="M460,376c3.46-5.66.94-11.35.1-17l3.85.16c.36,2.3.73,4.59,1.09,6.89l1,11-3,0Z"/><path class="aa" d="M463.93,359.1l-3.85-.16L460,359c-.29-.35-.59-.69-.88-1,0-1.64-.05-3.28-.08-4.92l3.94,2c0,.34.05.67.07,1L464,358C464,358.39,464,358.75,463.93,359.1Z"/><path class="ab" d="M459.13,358c.29.34.59.68.88,1l-4.32.68c5,5.81,4.26,9.07-1.68,10.33l-3-8q.5-3,1-6Z"/></svg>