<svg width="1440" height="1024" viewBox="0 0 1440 1024" fill="none" xmlns="http://www.w3.org/2000/svg">
<g id="Desktop - 1">
<rect width="1440" height="1024" fill="#070022"/>
<g id="Vector" filter="url(#filter0_d_2_2)">
<path d="M552 546C552 550.418 548.418 554 544 554C539.582 554 536 550.418 536 546C536 541.582 539.582 538 544 538C548.418 538 552 541.582 552 546Z" fill="white"/>
<path d="M1186 785.5C1186 799.031 1175.03 810 1161.5 810C1147.97 810 1137 799.031 1137 785.5C1137 771.969 1147.97 761 1161.5 761C1175.03 761 1186 771.969 1186 785.5Z" fill="white"/>
<path d="M1292 390.5C1292 405.688 1279.69 418 1264.5 418C1249.31 418 1237 405.688 1237 390.5C1237 375.312 1249.31 363 1264.5 363C1279.69 363 1292 375.312 1292 390.5Z" fill="white"/>
<path d="M1330 92C1330 93.6569 1328.66 95 1327 95C1325.34 95 1324 93.6569 1324 92C1324 90.3431 1325.34 89 1327 89C1328.66 89 1330 90.3431 1330 92Z" fill="white"/>
<path d="M289 843.5C289 857.031 278.031 868 264.5 868C250.969 868 240 857.031 240 843.5C240 829.969 250.969 819 264.5 819C278.031 819 289 829.969 289 843.5Z" fill="white"/>
<path d="M907 453.5C907 462.06 900.06 469 891.5 469C882.94 469 876 462.06 876 453.5C876 444.94 882.94 438 891.5 438C900.06 438 907 444.94 907 453.5Z" fill="white"/>
<path d="M814 144C814 145.657 812.657 147 811 147C809.343 147 808 145.657 808 144C808 142.343 809.343 141 811 141C812.657 141 814 142.343 814 144Z" fill="white"/>
<path d="M179 159.5C179 173.031 168.031 184 154.5 184C140.969 184 130 173.031 130 159.5C130 145.969 140.969 135 154.5 135C168.031 135 179 145.969 179 159.5Z" fill="white"/>
<path d="M694 801C694 805.418 690.418 809 686 809C681.582 809 678 805.418 678 801C678 796.582 681.582 793 686 793C690.418 793 694 796.582 694 801Z" fill="white"/>
<path d="M1049 708.5C1049 717.06 1042.06 724 1033.5 724C1024.94 724 1018 717.06 1018 708.5C1018 699.94 1024.94 693 1033.5 693C1042.06 693 1049 699.94 1049 708.5Z" fill="white"/>
<path d="M956 399C956 400.657 954.657 402 953 402C951.343 402 950 400.657 950 399C950 397.343 951.343 396 953 396C954.657 396 956 397.343 956 399Z" fill="white"/>
<path d="M274 391C274 391.552 273.552 392 273 392C272.448 392 272 391.552 272 391C272 390.448 272.448 390 273 390C273.552 390 274 390.448 274 391Z" fill="white"/>
</g>
</g>
<defs>
<filter id="filter0_d_2_2" x="126" y="89" width="1208" height="787" filterUnits="userSpaceOnUse" color-interpolation-filters="sRGB">
<feFlood flood-opacity="0" result="BackgroundImageFix"/>
<feColorMatrix in="SourceAlpha" type="matrix" values="0 0 0 0 0 0 0 0 0 0 0 0 0 0 0 0 0 0 127 0" result="hardAlpha"/>
<feOffset dy="4"/>
<feGaussianBlur stdDeviation="2"/>
<feComposite in2="hardAlpha" operator="out"/>
<feColorMatrix type="matrix" values="0 0 0 0 0 0 0 0 0 0 0 0 0 0 0 0 0 0 0.25 0"/>
<feBlend mode="normal" in2="BackgroundImageFix" result="effect1_dropShadow_2_2"/>
<feBlend mode="normal" in="SourceGraphic" in2="effect1_dropShadow_2_2" result="shape"/>
</filter>
</defs>
</svg>
